<?xml version="1.0" standalone="no"?><svg xmlns="http://www.w3.org/2000/svg" viewBox="0 0 1440 320"><path fill="#0099ff" fill-opacity="1" d="M0,64L10,58.7C20,53,40,43,60,69.3C80,96,100,160,120,202.7C140,245,160,267,180,256C200,245,220,203,240,170.7C260,139,280,117,300,117.3C320,117,340,139,360,170.7C380,203,400,245,420,229.3C440,213,460,139,480,101.3C500,64,520,64,540,101.3C560,139,580,213,600,208C620,203,640,117,660,74.7C680,32,700,32,720,48C740,64,760,96,780,138.7C800,181,820,235,840,234.7C860,235,880,181,900,138.7C920,96,940,64,960,80C980,96,1000,160,1020,170.7C1040,181,1060,139,1080,149.3C1100,160,1120,224,1140,224C1160,224,1180,160,1200,138.7C1220,117,1240,139,1260,160C1280,181,1300,203,1320,186.7C1340,171,1360,117,1380,90.7C1400,64,1420,64,1430,64L1440,64L1440,320L1430,320C1420,320,1400,320,1380,320C1360,320,1340,320,1320,320C1300,320,1280,320,1260,320C1240,320,1220,320,1200,320C1180,320,1160,320,1140,320C1120,320,1100,320,1080,320C1060,320,1040,320,1020,320C1000,320,980,320,960,320C940,320,920,320,900,320C880,320,860,320,840,320C820,320,800,320,780,320C760,320,740,320,720,320C700,320,680,320,660,320C640,320,620,320,600,320C580,320,560,320,540,320C520,320,500,320,480,320C460,320,440,320,420,320C400,320,380,320,360,320C340,320,320,320,300,320C280,320,260,320,240,320C220,320,200,320,180,320C160,320,140,320,120,320C100,320,80,320,60,320C40,320,20,320,10,320L0,320Z"></path></svg>